<mxfile host="app.diagrams.net" modified="2021-02-09T16:10:03.397Z" agent="5.0 (Windows NT 10.0; Win64; x64) AppleWebKit/537.36 (KHTML, like Gecko) Chrome/88.0.4324.146 Safari/537.36" etag="_rRtwf2DXpC6MMHIYJfG" version="14.2.9" type="github">
  <diagram id="C5RBs43oDa-KdzZeNtuy" name="Page-1">
    <mxGraphModel dx="2104" dy="1178" grid="1" gridSize="10" guides="1" tooltips="1" connect="1" arrows="1" fold="1" page="1" pageScale="1" pageWidth="1654" pageHeight="1169" math="0" shadow="0">
      <root>
        <mxCell id="WIyWlLk6GJQsqaUBKTNV-0" />
        <mxCell id="WIyWlLk6GJQsqaUBKTNV-1" parent="WIyWlLk6GJQsqaUBKTNV-0" />
        <mxCell id="WQc2Nrcp_P3XJUYGKFpb-14" value="Interface&#xa;&quot;Abstract heroes&quot;" style="swimlane;fontStyle=0;childLayout=stackLayout;horizontal=1;startSize=30;fillColor=none;horizontalStack=0;resizeParent=1;resizeParentMax=0;resizeLast=0;collapsible=1;marginBottom=0;" vertex="1" parent="WIyWlLk6GJQsqaUBKTNV-1">
          <mxGeometry x="520" y="490" width="200" height="108" as="geometry">
            <mxRectangle x="380" y="490" width="130" height="30" as="alternateBounds" />
          </mxGeometry>
        </mxCell>
        <mxCell id="WQc2Nrcp_P3XJUYGKFpb-15" value="+ method : Mage createMage()" style="text;strokeColor=none;fillColor=none;align=left;verticalAlign=top;spacingLeft=4;spacingRight=4;overflow=hidden;rotatable=0;points=[[0,0.5],[1,0.5]];portConstraint=eastwest;" vertex="1" parent="WQc2Nrcp_P3XJUYGKFpb-14">
          <mxGeometry y="30" width="200" height="26" as="geometry" />
        </mxCell>
        <mxCell id="WQc2Nrcp_P3XJUYGKFpb-16" value="+ method : Archer createArcher()" style="text;strokeColor=none;fillColor=none;align=left;verticalAlign=top;spacingLeft=4;spacingRight=4;overflow=hidden;rotatable=0;points=[[0,0.5],[1,0.5]];portConstraint=eastwest;" vertex="1" parent="WQc2Nrcp_P3XJUYGKFpb-14">
          <mxGeometry y="56" width="200" height="26" as="geometry" />
        </mxCell>
        <mxCell id="WQc2Nrcp_P3XJUYGKFpb-17" value="+ method : Warrior createWarrior()" style="text;strokeColor=none;fillColor=none;align=left;verticalAlign=top;spacingLeft=4;spacingRight=4;overflow=hidden;rotatable=0;points=[[0,0.5],[1,0.5]];portConstraint=eastwest;" vertex="1" parent="WQc2Nrcp_P3XJUYGKFpb-14">
          <mxGeometry y="82" width="200" height="26" as="geometry" />
        </mxCell>
        <mxCell id="WQc2Nrcp_P3XJUYGKFpb-22" value="UndeadFabric" style="swimlane;fontStyle=0;childLayout=stackLayout;horizontal=1;startSize=26;fillColor=none;horizontalStack=0;resizeParent=1;resizeParentMax=0;resizeLast=0;collapsible=1;marginBottom=0;" vertex="1" parent="WIyWlLk6GJQsqaUBKTNV-1">
          <mxGeometry x="850" y="710" width="200" height="104" as="geometry" />
        </mxCell>
        <mxCell id="WQc2Nrcp_P3XJUYGKFpb-23" value="+ method : Mage createMage()" style="text;strokeColor=none;fillColor=none;align=left;verticalAlign=top;spacingLeft=4;spacingRight=4;overflow=hidden;rotatable=0;points=[[0,0.5],[1,0.5]];portConstraint=eastwest;" vertex="1" parent="WQc2Nrcp_P3XJUYGKFpb-22">
          <mxGeometry y="26" width="200" height="26" as="geometry" />
        </mxCell>
        <mxCell id="WQc2Nrcp_P3XJUYGKFpb-24" value="+ method : Archer createArcher()" style="text;strokeColor=none;fillColor=none;align=left;verticalAlign=top;spacingLeft=4;spacingRight=4;overflow=hidden;rotatable=0;points=[[0,0.5],[1,0.5]];portConstraint=eastwest;" vertex="1" parent="WQc2Nrcp_P3XJUYGKFpb-22">
          <mxGeometry y="52" width="200" height="26" as="geometry" />
        </mxCell>
        <mxCell id="WQc2Nrcp_P3XJUYGKFpb-25" value="+ method : Warrior createWarrior()" style="text;strokeColor=none;fillColor=none;align=left;verticalAlign=top;spacingLeft=4;spacingRight=4;overflow=hidden;rotatable=0;points=[[0,0.5],[1,0.5]];portConstraint=eastwest;" vertex="1" parent="WQc2Nrcp_P3XJUYGKFpb-22">
          <mxGeometry y="78" width="200" height="26" as="geometry" />
        </mxCell>
        <mxCell id="WQc2Nrcp_P3XJUYGKFpb-26" value="OrkFabric" style="swimlane;fontStyle=0;childLayout=stackLayout;horizontal=1;startSize=26;fillColor=none;horizontalStack=0;resizeParent=1;resizeParentMax=0;resizeLast=0;collapsible=1;marginBottom=0;" vertex="1" parent="WIyWlLk6GJQsqaUBKTNV-1">
          <mxGeometry x="250" y="710" width="190" height="104" as="geometry" />
        </mxCell>
        <mxCell id="WQc2Nrcp_P3XJUYGKFpb-27" value="+ method : Mage createMage()" style="text;strokeColor=none;fillColor=none;align=left;verticalAlign=top;spacingLeft=4;spacingRight=4;overflow=hidden;rotatable=0;points=[[0,0.5],[1,0.5]];portConstraint=eastwest;" vertex="1" parent="WQc2Nrcp_P3XJUYGKFpb-26">
          <mxGeometry y="26" width="190" height="26" as="geometry" />
        </mxCell>
        <mxCell id="WQc2Nrcp_P3XJUYGKFpb-28" value="+ method : Archer createArcher()" style="text;strokeColor=none;fillColor=none;align=left;verticalAlign=top;spacingLeft=4;spacingRight=4;overflow=hidden;rotatable=0;points=[[0,0.5],[1,0.5]];portConstraint=eastwest;" vertex="1" parent="WQc2Nrcp_P3XJUYGKFpb-26">
          <mxGeometry y="52" width="190" height="26" as="geometry" />
        </mxCell>
        <mxCell id="WQc2Nrcp_P3XJUYGKFpb-29" value="+ method : Warrior createWarrior()" style="text;strokeColor=none;fillColor=none;align=left;verticalAlign=top;spacingLeft=4;spacingRight=4;overflow=hidden;rotatable=0;points=[[0,0.5],[1,0.5]];portConstraint=eastwest;" vertex="1" parent="WQc2Nrcp_P3XJUYGKFpb-26">
          <mxGeometry y="78" width="190" height="26" as="geometry" />
        </mxCell>
        <mxCell id="WQc2Nrcp_P3XJUYGKFpb-30" value="class &quot;HumanFabric&quot;" style="swimlane;fontStyle=0;childLayout=stackLayout;horizontal=1;startSize=26;fillColor=none;horizontalStack=0;resizeParent=1;resizeParentMax=0;resizeLast=0;collapsible=1;marginBottom=0;" vertex="1" parent="WIyWlLk6GJQsqaUBKTNV-1">
          <mxGeometry x="850" y="310" width="200" height="104" as="geometry" />
        </mxCell>
        <mxCell id="WQc2Nrcp_P3XJUYGKFpb-31" value="+ method : Mage createMage()" style="text;strokeColor=none;fillColor=none;align=left;verticalAlign=top;spacingLeft=4;spacingRight=4;overflow=hidden;rotatable=0;points=[[0,0.5],[1,0.5]];portConstraint=eastwest;" vertex="1" parent="WQc2Nrcp_P3XJUYGKFpb-30">
          <mxGeometry y="26" width="200" height="26" as="geometry" />
        </mxCell>
        <mxCell id="WQc2Nrcp_P3XJUYGKFpb-32" value="+ method : Archer createArcher()" style="text;strokeColor=none;fillColor=none;align=left;verticalAlign=top;spacingLeft=4;spacingRight=4;overflow=hidden;rotatable=0;points=[[0,0.5],[1,0.5]];portConstraint=eastwest;" vertex="1" parent="WQc2Nrcp_P3XJUYGKFpb-30">
          <mxGeometry y="52" width="200" height="26" as="geometry" />
        </mxCell>
        <mxCell id="WQc2Nrcp_P3XJUYGKFpb-33" value="+ method : Warrior createWarrior()" style="text;strokeColor=none;fillColor=none;align=left;verticalAlign=top;spacingLeft=4;spacingRight=4;overflow=hidden;rotatable=0;points=[[0,0.5],[1,0.5]];portConstraint=eastwest;" vertex="1" parent="WQc2Nrcp_P3XJUYGKFpb-30">
          <mxGeometry y="78" width="200" height="26" as="geometry" />
        </mxCell>
        <mxCell id="WQc2Nrcp_P3XJUYGKFpb-140" value="" style="endArrow=classic;html=1;entryX=0.508;entryY=1.198;entryDx=0;entryDy=0;entryPerimeter=0;" edge="1" parent="WQc2Nrcp_P3XJUYGKFpb-30" target="WQc2Nrcp_P3XJUYGKFpb-52">
          <mxGeometry width="50" height="50" relative="1" as="geometry">
            <mxPoint x="170" as="sourcePoint" />
            <mxPoint x="220" y="-50" as="targetPoint" />
          </mxGeometry>
        </mxCell>
        <mxCell id="WQc2Nrcp_P3XJUYGKFpb-34" value="ElfWarrior" style="swimlane;fontStyle=0;childLayout=stackLayout;horizontal=1;startSize=26;fillColor=none;horizontalStack=0;resizeParent=1;resizeParentMax=0;resizeLast=0;collapsible=1;marginBottom=0;" vertex="1" parent="WIyWlLk6GJQsqaUBKTNV-1">
          <mxGeometry y="310" width="140" height="52" as="geometry" />
        </mxCell>
        <mxCell id="WQc2Nrcp_P3XJUYGKFpb-35" value="+ method : swordAtack()" style="text;strokeColor=none;fillColor=none;align=left;verticalAlign=top;spacingLeft=4;spacingRight=4;overflow=hidden;rotatable=0;points=[[0,0.5],[1,0.5]];portConstraint=eastwest;" vertex="1" parent="WQc2Nrcp_P3XJUYGKFpb-34">
          <mxGeometry y="26" width="140" height="26" as="geometry" />
        </mxCell>
        <mxCell id="WQc2Nrcp_P3XJUYGKFpb-38" value="ElfMage" style="swimlane;fontStyle=0;childLayout=stackLayout;horizontal=1;startSize=26;fillColor=none;horizontalStack=0;resizeParent=1;resizeParentMax=0;resizeLast=0;collapsible=1;marginBottom=0;" vertex="1" parent="WIyWlLk6GJQsqaUBKTNV-1">
          <mxGeometry y="96" width="140" height="78" as="geometry" />
        </mxCell>
        <mxCell id="WQc2Nrcp_P3XJUYGKFpb-39" value="+ method : blessing()" style="text;strokeColor=none;fillColor=none;align=left;verticalAlign=top;spacingLeft=4;spacingRight=4;overflow=hidden;rotatable=0;points=[[0,0.5],[1,0.5]];portConstraint=eastwest;" vertex="1" parent="WQc2Nrcp_P3XJUYGKFpb-38">
          <mxGeometry y="26" width="140" height="26" as="geometry" />
        </mxCell>
        <mxCell id="WQc2Nrcp_P3XJUYGKFpb-40" value="+ method : mageAtack()" style="text;strokeColor=none;fillColor=none;align=left;verticalAlign=top;spacingLeft=4;spacingRight=4;overflow=hidden;rotatable=0;points=[[0,0.5],[1,0.5]];portConstraint=eastwest;" vertex="1" parent="WQc2Nrcp_P3XJUYGKFpb-38">
          <mxGeometry y="52" width="140" height="26" as="geometry" />
        </mxCell>
        <mxCell id="WQc2Nrcp_P3XJUYGKFpb-42" value="ElfArcher" style="swimlane;fontStyle=0;childLayout=stackLayout;horizontal=1;startSize=26;fillColor=none;horizontalStack=0;resizeParent=1;resizeParentMax=0;resizeLast=0;collapsible=1;marginBottom=0;" vertex="1" parent="WIyWlLk6GJQsqaUBKTNV-1">
          <mxGeometry x="240" y="96" width="180" height="78" as="geometry" />
        </mxCell>
        <mxCell id="WQc2Nrcp_P3XJUYGKFpb-43" value="+ method : shotArcher()" style="text;strokeColor=none;fillColor=none;align=left;verticalAlign=top;spacingLeft=4;spacingRight=4;overflow=hidden;rotatable=0;points=[[0,0.5],[1,0.5]];portConstraint=eastwest;" vertex="1" parent="WQc2Nrcp_P3XJUYGKFpb-42">
          <mxGeometry y="26" width="180" height="26" as="geometry" />
        </mxCell>
        <mxCell id="WQc2Nrcp_P3XJUYGKFpb-44" value="+ method : meleeAtack()" style="text;strokeColor=none;fillColor=none;align=left;verticalAlign=top;spacingLeft=4;spacingRight=4;overflow=hidden;rotatable=0;points=[[0,0.5],[1,0.5]];portConstraint=eastwest;" vertex="1" parent="WQc2Nrcp_P3XJUYGKFpb-42">
          <mxGeometry y="52" width="180" height="26" as="geometry" />
        </mxCell>
        <mxCell id="WQc2Nrcp_P3XJUYGKFpb-46" value="HumanMage" style="swimlane;fontStyle=0;childLayout=stackLayout;horizontal=1;startSize=26;fillColor=none;horizontalStack=0;resizeParent=1;resizeParentMax=0;resizeLast=0;collapsible=1;marginBottom=0;" vertex="1" parent="WIyWlLk6GJQsqaUBKTNV-1">
          <mxGeometry x="850" y="96" width="140" height="78" as="geometry" />
        </mxCell>
        <mxCell id="WQc2Nrcp_P3XJUYGKFpb-47" value="+ method : blessing()" style="text;strokeColor=none;fillColor=none;align=left;verticalAlign=top;spacingLeft=4;spacingRight=4;overflow=hidden;rotatable=0;points=[[0,0.5],[1,0.5]];portConstraint=eastwest;" vertex="1" parent="WQc2Nrcp_P3XJUYGKFpb-46">
          <mxGeometry y="26" width="140" height="26" as="geometry" />
        </mxCell>
        <mxCell id="WQc2Nrcp_P3XJUYGKFpb-48" value="+ method : mageAtack()" style="text;strokeColor=none;fillColor=none;align=left;verticalAlign=top;spacingLeft=4;spacingRight=4;overflow=hidden;rotatable=0;points=[[0,0.5],[1,0.5]];portConstraint=eastwest;" vertex="1" parent="WQc2Nrcp_P3XJUYGKFpb-46">
          <mxGeometry y="52" width="140" height="26" as="geometry" />
        </mxCell>
        <mxCell id="WQc2Nrcp_P3XJUYGKFpb-50" value="HumanArcher" style="swimlane;fontStyle=0;childLayout=stackLayout;horizontal=1;startSize=26;fillColor=none;horizontalStack=0;resizeParent=1;resizeParentMax=0;resizeLast=0;collapsible=1;marginBottom=0;" vertex="1" parent="WIyWlLk6GJQsqaUBKTNV-1">
          <mxGeometry x="1130" y="96" width="150" height="78" as="geometry" />
        </mxCell>
        <mxCell id="WQc2Nrcp_P3XJUYGKFpb-51" value="+ method : shotArcher()" style="text;strokeColor=none;fillColor=none;align=left;verticalAlign=top;spacingLeft=4;spacingRight=4;overflow=hidden;rotatable=0;points=[[0,0.5],[1,0.5]];portConstraint=eastwest;" vertex="1" parent="WQc2Nrcp_P3XJUYGKFpb-50">
          <mxGeometry y="26" width="150" height="26" as="geometry" />
        </mxCell>
        <mxCell id="WQc2Nrcp_P3XJUYGKFpb-52" value="+ method : meleeAtack()" style="text;strokeColor=none;fillColor=none;align=left;verticalAlign=top;spacingLeft=4;spacingRight=4;overflow=hidden;rotatable=0;points=[[0,0.5],[1,0.5]];portConstraint=eastwest;" vertex="1" parent="WQc2Nrcp_P3XJUYGKFpb-50">
          <mxGeometry y="52" width="150" height="26" as="geometry" />
        </mxCell>
        <mxCell id="WQc2Nrcp_P3XJUYGKFpb-54" value="HumanWarrior" style="swimlane;fontStyle=0;childLayout=stackLayout;horizontal=1;startSize=26;fillColor=none;horizontalStack=0;resizeParent=1;resizeParentMax=0;resizeLast=0;collapsible=1;marginBottom=0;" vertex="1" parent="WIyWlLk6GJQsqaUBKTNV-1">
          <mxGeometry x="1130" y="310" width="160" height="52" as="geometry" />
        </mxCell>
        <mxCell id="WQc2Nrcp_P3XJUYGKFpb-55" value="+ method : swordAtack()" style="text;strokeColor=none;fillColor=none;align=left;verticalAlign=top;spacingLeft=4;spacingRight=4;overflow=hidden;rotatable=0;points=[[0,0.5],[1,0.5]];portConstraint=eastwest;" vertex="1" parent="WQc2Nrcp_P3XJUYGKFpb-54">
          <mxGeometry y="26" width="160" height="26" as="geometry" />
        </mxCell>
        <mxCell id="WQc2Nrcp_P3XJUYGKFpb-58" value="OrkMage" style="swimlane;fontStyle=0;childLayout=stackLayout;horizontal=1;startSize=26;fillColor=none;horizontalStack=0;resizeParent=1;resizeParentMax=0;resizeLast=0;collapsible=1;marginBottom=0;" vertex="1" parent="WIyWlLk6GJQsqaUBKTNV-1">
          <mxGeometry y="710" width="160" height="78" as="geometry" />
        </mxCell>
        <mxCell id="WQc2Nrcp_P3XJUYGKFpb-59" value="+ method : blessing()" style="text;strokeColor=none;fillColor=none;align=left;verticalAlign=top;spacingLeft=4;spacingRight=4;overflow=hidden;rotatable=0;points=[[0,0.5],[1,0.5]];portConstraint=eastwest;" vertex="1" parent="WQc2Nrcp_P3XJUYGKFpb-58">
          <mxGeometry y="26" width="160" height="26" as="geometry" />
        </mxCell>
        <mxCell id="WQc2Nrcp_P3XJUYGKFpb-60" value="+ method : mageAtack()" style="text;strokeColor=none;fillColor=none;align=left;verticalAlign=top;spacingLeft=4;spacingRight=4;overflow=hidden;rotatable=0;points=[[0,0.5],[1,0.5]];portConstraint=eastwest;" vertex="1" parent="WQc2Nrcp_P3XJUYGKFpb-58">
          <mxGeometry y="52" width="160" height="26" as="geometry" />
        </mxCell>
        <mxCell id="WQc2Nrcp_P3XJUYGKFpb-62" value="OrkWarrior" style="swimlane;fontStyle=0;childLayout=stackLayout;horizontal=1;startSize=26;fillColor=none;horizontalStack=0;resizeParent=1;resizeParentMax=0;resizeLast=0;collapsible=1;marginBottom=0;" vertex="1" parent="WIyWlLk6GJQsqaUBKTNV-1">
          <mxGeometry y="910" width="160" height="52" as="geometry" />
        </mxCell>
        <mxCell id="WQc2Nrcp_P3XJUYGKFpb-63" value="+ method : swordAtack()" style="text;strokeColor=none;fillColor=none;align=left;verticalAlign=top;spacingLeft=4;spacingRight=4;overflow=hidden;rotatable=0;points=[[0,0.5],[1,0.5]];portConstraint=eastwest;" vertex="1" parent="WQc2Nrcp_P3XJUYGKFpb-62">
          <mxGeometry y="26" width="160" height="26" as="geometry" />
        </mxCell>
        <mxCell id="WQc2Nrcp_P3XJUYGKFpb-66" value="OrkArcher" style="swimlane;fontStyle=0;childLayout=stackLayout;horizontal=1;startSize=26;fillColor=none;horizontalStack=0;resizeParent=1;resizeParentMax=0;resizeLast=0;collapsible=1;marginBottom=0;" vertex="1" parent="WIyWlLk6GJQsqaUBKTNV-1">
          <mxGeometry x="260" y="910" width="160" height="78" as="geometry" />
        </mxCell>
        <mxCell id="WQc2Nrcp_P3XJUYGKFpb-67" value="+ method : shotArcher()" style="text;strokeColor=none;fillColor=none;align=left;verticalAlign=top;spacingLeft=4;spacingRight=4;overflow=hidden;rotatable=0;points=[[0,0.5],[1,0.5]];portConstraint=eastwest;" vertex="1" parent="WQc2Nrcp_P3XJUYGKFpb-66">
          <mxGeometry y="26" width="160" height="26" as="geometry" />
        </mxCell>
        <mxCell id="WQc2Nrcp_P3XJUYGKFpb-68" value="+ method : meleeAtack()" style="text;strokeColor=none;fillColor=none;align=left;verticalAlign=top;spacingLeft=4;spacingRight=4;overflow=hidden;rotatable=0;points=[[0,0.5],[1,0.5]];portConstraint=eastwest;" vertex="1" parent="WQc2Nrcp_P3XJUYGKFpb-66">
          <mxGeometry y="52" width="160" height="26" as="geometry" />
        </mxCell>
        <mxCell id="WQc2Nrcp_P3XJUYGKFpb-70" value="UndeadArcher" style="swimlane;fontStyle=0;childLayout=stackLayout;horizontal=1;startSize=26;fillColor=none;horizontalStack=0;resizeParent=1;resizeParentMax=0;resizeLast=0;collapsible=1;marginBottom=0;" vertex="1" parent="WIyWlLk6GJQsqaUBKTNV-1">
          <mxGeometry x="1135" y="710" width="155" height="78" as="geometry" />
        </mxCell>
        <mxCell id="WQc2Nrcp_P3XJUYGKFpb-71" value="+ method : shotArcher()" style="text;strokeColor=none;fillColor=none;align=left;verticalAlign=top;spacingLeft=4;spacingRight=4;overflow=hidden;rotatable=0;points=[[0,0.5],[1,0.5]];portConstraint=eastwest;" vertex="1" parent="WQc2Nrcp_P3XJUYGKFpb-70">
          <mxGeometry y="26" width="155" height="26" as="geometry" />
        </mxCell>
        <mxCell id="WQc2Nrcp_P3XJUYGKFpb-72" value="+ method : meleeAtack()" style="text;strokeColor=none;fillColor=none;align=left;verticalAlign=top;spacingLeft=4;spacingRight=4;overflow=hidden;rotatable=0;points=[[0,0.5],[1,0.5]];portConstraint=eastwest;" vertex="1" parent="WQc2Nrcp_P3XJUYGKFpb-70">
          <mxGeometry y="52" width="155" height="26" as="geometry" />
        </mxCell>
        <mxCell id="WQc2Nrcp_P3XJUYGKFpb-74" value="UndeadMage" style="swimlane;fontStyle=0;childLayout=stackLayout;horizontal=1;startSize=26;fillColor=none;horizontalStack=0;resizeParent=1;resizeParentMax=0;resizeLast=0;collapsible=1;marginBottom=0;" vertex="1" parent="WIyWlLk6GJQsqaUBKTNV-1">
          <mxGeometry x="850" y="910" width="160" height="78" as="geometry" />
        </mxCell>
        <mxCell id="WQc2Nrcp_P3XJUYGKFpb-75" value="+ method : blessing()" style="text;strokeColor=none;fillColor=none;align=left;verticalAlign=top;spacingLeft=4;spacingRight=4;overflow=hidden;rotatable=0;points=[[0,0.5],[1,0.5]];portConstraint=eastwest;" vertex="1" parent="WQc2Nrcp_P3XJUYGKFpb-74">
          <mxGeometry y="26" width="160" height="26" as="geometry" />
        </mxCell>
        <mxCell id="WQc2Nrcp_P3XJUYGKFpb-76" value="+ method : mageAtack()" style="text;strokeColor=none;fillColor=none;align=left;verticalAlign=top;spacingLeft=4;spacingRight=4;overflow=hidden;rotatable=0;points=[[0,0.5],[1,0.5]];portConstraint=eastwest;" vertex="1" parent="WQc2Nrcp_P3XJUYGKFpb-74">
          <mxGeometry y="52" width="160" height="26" as="geometry" />
        </mxCell>
        <mxCell id="WQc2Nrcp_P3XJUYGKFpb-78" value="UndeadWarrior" style="swimlane;fontStyle=0;childLayout=stackLayout;horizontal=1;startSize=26;fillColor=none;horizontalStack=0;resizeParent=1;resizeParentMax=0;resizeLast=0;collapsible=1;marginBottom=0;" vertex="1" parent="WIyWlLk6GJQsqaUBKTNV-1">
          <mxGeometry x="1135" y="910" width="155" height="52" as="geometry" />
        </mxCell>
        <mxCell id="WQc2Nrcp_P3XJUYGKFpb-79" value="+ method : swordAtack()" style="text;strokeColor=none;fillColor=none;align=left;verticalAlign=top;spacingLeft=4;spacingRight=4;overflow=hidden;rotatable=0;points=[[0,0.5],[1,0.5]];portConstraint=eastwest;" vertex="1" parent="WQc2Nrcp_P3XJUYGKFpb-78">
          <mxGeometry y="26" width="155" height="26" as="geometry" />
        </mxCell>
        <mxCell id="WQc2Nrcp_P3XJUYGKFpb-86" value="Application" style="swimlane;fontStyle=1;align=center;verticalAlign=top;childLayout=stackLayout;horizontal=1;startSize=26;horizontalStack=0;resizeParent=1;resizeParentMax=0;resizeLast=0;collapsible=1;marginBottom=0;" vertex="1" parent="WIyWlLk6GJQsqaUBKTNV-1">
          <mxGeometry x="860" y="490" width="180" height="138" as="geometry">
            <mxRectangle x="1160" y="480" width="100" height="26" as="alternateBounds" />
          </mxGeometry>
        </mxCell>
        <mxCell id="WQc2Nrcp_P3XJUYGKFpb-87" value="+ field: Mage mage" style="text;strokeColor=none;fillColor=none;align=left;verticalAlign=top;spacingLeft=4;spacingRight=4;overflow=hidden;rotatable=0;points=[[0,0.5],[1,0.5]];portConstraint=eastwest;" vertex="1" parent="WQc2Nrcp_P3XJUYGKFpb-86">
          <mxGeometry y="26" width="180" height="26" as="geometry" />
        </mxCell>
        <mxCell id="WQc2Nrcp_P3XJUYGKFpb-120" value="+ field: Archer archer" style="text;strokeColor=none;fillColor=none;align=left;verticalAlign=top;spacingLeft=4;spacingRight=4;overflow=hidden;rotatable=0;points=[[0,0.5],[1,0.5]];portConstraint=eastwest;" vertex="1" parent="WQc2Nrcp_P3XJUYGKFpb-86">
          <mxGeometry y="52" width="180" height="26" as="geometry" />
        </mxCell>
        <mxCell id="WQc2Nrcp_P3XJUYGKFpb-124" value="+ field: Warrior warrior" style="text;strokeColor=none;fillColor=none;align=left;verticalAlign=top;spacingLeft=4;spacingRight=4;overflow=hidden;rotatable=0;points=[[0,0.5],[1,0.5]];portConstraint=eastwest;" vertex="1" parent="WQc2Nrcp_P3XJUYGKFpb-86">
          <mxGeometry y="78" width="180" height="26" as="geometry" />
        </mxCell>
        <mxCell id="WQc2Nrcp_P3XJUYGKFpb-88" value="" style="line;strokeWidth=1;fillColor=none;align=left;verticalAlign=middle;spacingTop=-1;spacingLeft=3;spacingRight=3;rotatable=0;labelPosition=right;points=[];portConstraint=eastwest;" vertex="1" parent="WQc2Nrcp_P3XJUYGKFpb-86">
          <mxGeometry y="104" width="180" height="8" as="geometry" />
        </mxCell>
        <mxCell id="WQc2Nrcp_P3XJUYGKFpb-123" value="+ method : run()" style="text;strokeColor=none;fillColor=none;align=left;verticalAlign=top;spacingLeft=4;spacingRight=4;overflow=hidden;rotatable=0;points=[[0,0.5],[1,0.5]];portConstraint=eastwest;" vertex="1" parent="WQc2Nrcp_P3XJUYGKFpb-86">
          <mxGeometry y="112" width="180" height="26" as="geometry" />
        </mxCell>
        <mxCell id="WQc2Nrcp_P3XJUYGKFpb-91" value="class&#xa;&quot;Elf Fabric&quot;" style="swimlane;fontStyle=0;childLayout=stackLayout;horizontal=1;startSize=30;fillColor=none;horizontalStack=0;resizeParent=1;resizeParentMax=0;resizeLast=0;collapsible=1;marginBottom=0;" vertex="1" parent="WIyWlLk6GJQsqaUBKTNV-1">
          <mxGeometry x="240" y="310" width="200" height="108" as="geometry">
            <mxRectangle x="380" y="490" width="130" height="30" as="alternateBounds" />
          </mxGeometry>
        </mxCell>
        <mxCell id="WQc2Nrcp_P3XJUYGKFpb-92" value="+ method : Mage createMage()" style="text;strokeColor=none;fillColor=none;align=left;verticalAlign=top;spacingLeft=4;spacingRight=4;overflow=hidden;rotatable=0;points=[[0,0.5],[1,0.5]];portConstraint=eastwest;" vertex="1" parent="WQc2Nrcp_P3XJUYGKFpb-91">
          <mxGeometry y="30" width="200" height="26" as="geometry" />
        </mxCell>
        <mxCell id="WQc2Nrcp_P3XJUYGKFpb-93" value="+ method : Archer createArcher()" style="text;strokeColor=none;fillColor=none;align=left;verticalAlign=top;spacingLeft=4;spacingRight=4;overflow=hidden;rotatable=0;points=[[0,0.5],[1,0.5]];portConstraint=eastwest;" vertex="1" parent="WQc2Nrcp_P3XJUYGKFpb-91">
          <mxGeometry y="56" width="200" height="26" as="geometry" />
        </mxCell>
        <mxCell id="WQc2Nrcp_P3XJUYGKFpb-94" value="+ method : Warrior createWarrior()" style="text;strokeColor=none;fillColor=none;align=left;verticalAlign=top;spacingLeft=4;spacingRight=4;overflow=hidden;rotatable=0;points=[[0,0.5],[1,0.5]];portConstraint=eastwest;" vertex="1" parent="WQc2Nrcp_P3XJUYGKFpb-91">
          <mxGeometry y="82" width="200" height="26" as="geometry" />
        </mxCell>
        <mxCell id="WQc2Nrcp_P3XJUYGKFpb-96" value="Interface &quot;Mage&quot;" style="swimlane;fontStyle=0;childLayout=stackLayout;horizontal=1;startSize=26;fillColor=none;horizontalStack=0;resizeParent=1;resizeParentMax=0;resizeLast=0;collapsible=1;marginBottom=0;" vertex="1" parent="WIyWlLk6GJQsqaUBKTNV-1">
          <mxGeometry x="550" y="96" width="140" height="78" as="geometry" />
        </mxCell>
        <mxCell id="WQc2Nrcp_P3XJUYGKFpb-97" value="+ method : blessing()" style="text;strokeColor=none;fillColor=none;align=left;verticalAlign=top;spacingLeft=4;spacingRight=4;overflow=hidden;rotatable=0;points=[[0,0.5],[1,0.5]];portConstraint=eastwest;" vertex="1" parent="WQc2Nrcp_P3XJUYGKFpb-96">
          <mxGeometry y="26" width="140" height="26" as="geometry" />
        </mxCell>
        <mxCell id="WQc2Nrcp_P3XJUYGKFpb-98" value="+ method : mageAtack()" style="text;strokeColor=none;fillColor=none;align=left;verticalAlign=top;spacingLeft=4;spacingRight=4;overflow=hidden;rotatable=0;points=[[0,0.5],[1,0.5]];portConstraint=eastwest;" vertex="1" parent="WQc2Nrcp_P3XJUYGKFpb-96">
          <mxGeometry y="52" width="140" height="26" as="geometry" />
        </mxCell>
        <mxCell id="WQc2Nrcp_P3XJUYGKFpb-100" value="Interface &quot;Archer&quot;" style="swimlane;fontStyle=0;childLayout=stackLayout;horizontal=1;startSize=26;fillColor=none;horizontalStack=0;resizeParent=1;resizeParentMax=0;resizeLast=0;collapsible=1;marginBottom=0;" vertex="1" parent="WIyWlLk6GJQsqaUBKTNV-1">
          <mxGeometry x="540" y="220" width="160" height="78" as="geometry" />
        </mxCell>
        <mxCell id="WQc2Nrcp_P3XJUYGKFpb-101" value="+ method : shotArcher()" style="text;strokeColor=none;fillColor=none;align=left;verticalAlign=top;spacingLeft=4;spacingRight=4;overflow=hidden;rotatable=0;points=[[0,0.5],[1,0.5]];portConstraint=eastwest;" vertex="1" parent="WQc2Nrcp_P3XJUYGKFpb-100">
          <mxGeometry y="26" width="160" height="26" as="geometry" />
        </mxCell>
        <mxCell id="WQc2Nrcp_P3XJUYGKFpb-102" value="+ method : meleeAtack()" style="text;strokeColor=none;fillColor=none;align=left;verticalAlign=top;spacingLeft=4;spacingRight=4;overflow=hidden;rotatable=0;points=[[0,0.5],[1,0.5]];portConstraint=eastwest;" vertex="1" parent="WQc2Nrcp_P3XJUYGKFpb-100">
          <mxGeometry y="52" width="160" height="26" as="geometry" />
        </mxCell>
        <mxCell id="WQc2Nrcp_P3XJUYGKFpb-103" value="Interface &quot;Warrior&quot;" style="swimlane;fontStyle=0;childLayout=stackLayout;horizontal=1;startSize=26;fillColor=none;horizontalStack=0;resizeParent=1;resizeParentMax=0;resizeLast=0;collapsible=1;marginBottom=0;" vertex="1" parent="WIyWlLk6GJQsqaUBKTNV-1">
          <mxGeometry x="550" y="350" width="140" height="52" as="geometry" />
        </mxCell>
        <mxCell id="WQc2Nrcp_P3XJUYGKFpb-104" value="+ method : swordAtack()" style="text;strokeColor=none;fillColor=none;align=left;verticalAlign=top;spacingLeft=4;spacingRight=4;overflow=hidden;rotatable=0;points=[[0,0.5],[1,0.5]];portConstraint=eastwest;" vertex="1" parent="WQc2Nrcp_P3XJUYGKFpb-103">
          <mxGeometry y="26" width="140" height="26" as="geometry" />
        </mxCell>
        <mxCell id="WQc2Nrcp_P3XJUYGKFpb-129" value="Logic" style="swimlane;fontStyle=1;align=center;verticalAlign=top;childLayout=stackLayout;horizontal=1;startSize=26;horizontalStack=0;resizeParent=1;resizeParentMax=0;resizeLast=0;collapsible=1;marginBottom=0;" vertex="1" parent="WIyWlLk6GJQsqaUBKTNV-1">
          <mxGeometry x="1130" y="490" width="180" height="138" as="geometry" />
        </mxCell>
        <mxCell id="WQc2Nrcp_P3XJUYGKFpb-131" value="" style="line;strokeWidth=1;fillColor=none;align=left;verticalAlign=middle;spacingTop=-1;spacingLeft=3;spacingRight=3;rotatable=0;labelPosition=right;points=[];portConstraint=eastwest;" vertex="1" parent="WQc2Nrcp_P3XJUYGKFpb-129">
          <mxGeometry y="26" width="180" height="8" as="geometry" />
        </mxCell>
        <mxCell id="WQc2Nrcp_P3XJUYGKFpb-132" value="+ method : generationMoves()" style="text;strokeColor=none;fillColor=none;align=left;verticalAlign=top;spacingLeft=4;spacingRight=4;overflow=hidden;rotatable=0;points=[[0,0.5],[1,0.5]];portConstraint=eastwest;" vertex="1" parent="WQc2Nrcp_P3XJUYGKFpb-129">
          <mxGeometry y="34" width="180" height="26" as="geometry" />
        </mxCell>
        <mxCell id="WQc2Nrcp_P3XJUYGKFpb-133" value="+ method : generationTroops()" style="text;strokeColor=none;fillColor=none;align=left;verticalAlign=top;spacingLeft=4;spacingRight=4;overflow=hidden;rotatable=0;points=[[0,0.5],[1,0.5]];portConstraint=eastwest;" vertex="1" parent="WQc2Nrcp_P3XJUYGKFpb-129">
          <mxGeometry y="60" width="180" height="26" as="geometry" />
        </mxCell>
        <mxCell id="WQc2Nrcp_P3XJUYGKFpb-134" value="+ method : isBlessed()" style="text;strokeColor=none;fillColor=none;align=left;verticalAlign=top;spacingLeft=4;spacingRight=4;overflow=hidden;rotatable=0;points=[[0,0.5],[1,0.5]];portConstraint=eastwest;" vertex="1" parent="WQc2Nrcp_P3XJUYGKFpb-129">
          <mxGeometry y="86" width="180" height="26" as="geometry" />
        </mxCell>
        <mxCell id="WQc2Nrcp_P3XJUYGKFpb-135" value="+ method : isCursed()" style="text;strokeColor=none;fillColor=none;align=left;verticalAlign=top;spacingLeft=4;spacingRight=4;overflow=hidden;rotatable=0;points=[[0,0.5],[1,0.5]];portConstraint=eastwest;" vertex="1" parent="WQc2Nrcp_P3XJUYGKFpb-129">
          <mxGeometry y="112" width="180" height="26" as="geometry" />
        </mxCell>
        <mxCell id="WQc2Nrcp_P3XJUYGKFpb-137" value="" style="endArrow=classic;html=1;entryX=0.544;entryY=1.08;entryDx=0;entryDy=0;entryPerimeter=0;" edge="1" parent="WIyWlLk6GJQsqaUBKTNV-1" target="WQc2Nrcp_P3XJUYGKFpb-44">
          <mxGeometry width="50" height="50" relative="1" as="geometry">
            <mxPoint x="340" y="310" as="sourcePoint" />
            <mxPoint x="390" y="260" as="targetPoint" />
          </mxGeometry>
        </mxCell>
        <mxCell id="WQc2Nrcp_P3XJUYGKFpb-138" value="" style="endArrow=classic;html=1;entryX=1.014;entryY=0.129;entryDx=0;entryDy=0;entryPerimeter=0;" edge="1" parent="WIyWlLk6GJQsqaUBKTNV-1" target="WQc2Nrcp_P3XJUYGKFpb-35">
          <mxGeometry width="50" height="50" relative="1" as="geometry">
            <mxPoint x="240" y="339" as="sourcePoint" />
            <mxPoint x="170" y="335" as="targetPoint" />
          </mxGeometry>
        </mxCell>
        <mxCell id="WQc2Nrcp_P3XJUYGKFpb-139" value="" style="endArrow=classic;html=1;entryX=0.533;entryY=1.159;entryDx=0;entryDy=0;entryPerimeter=0;" edge="1" parent="WIyWlLk6GJQsqaUBKTNV-1" source="WQc2Nrcp_P3XJUYGKFpb-91" target="WQc2Nrcp_P3XJUYGKFpb-40">
          <mxGeometry width="50" height="50" relative="1" as="geometry">
            <mxPoint x="230" y="284" as="sourcePoint" />
            <mxPoint x="280" y="234" as="targetPoint" />
          </mxGeometry>
        </mxCell>
        <mxCell id="WQc2Nrcp_P3XJUYGKFpb-141" value="" style="endArrow=classic;html=1;entryX=0;entryY=0.5;entryDx=0;entryDy=0;" edge="1" parent="WIyWlLk6GJQsqaUBKTNV-1" target="WQc2Nrcp_P3XJUYGKFpb-55">
          <mxGeometry width="50" height="50" relative="1" as="geometry">
            <mxPoint x="1050" y="348" as="sourcePoint" />
            <mxPoint x="1100" y="298" as="targetPoint" />
          </mxGeometry>
        </mxCell>
        <mxCell id="WQc2Nrcp_P3XJUYGKFpb-142" value="" style="endArrow=classic;html=1;entryX=0.569;entryY=1.041;entryDx=0;entryDy=0;entryPerimeter=0;" edge="1" parent="WIyWlLk6GJQsqaUBKTNV-1" target="WQc2Nrcp_P3XJUYGKFpb-48">
          <mxGeometry width="50" height="50" relative="1" as="geometry">
            <mxPoint x="930" y="310" as="sourcePoint" />
            <mxPoint x="980" y="260" as="targetPoint" />
          </mxGeometry>
        </mxCell>
        <mxCell id="WQc2Nrcp_P3XJUYGKFpb-143" value="" style="endArrow=classic;html=1;entryX=1.008;entryY=-0.086;entryDx=0;entryDy=0;entryPerimeter=0;exitX=-0.01;exitY=0.835;exitDx=0;exitDy=0;exitPerimeter=0;" edge="1" parent="WIyWlLk6GJQsqaUBKTNV-1" source="WQc2Nrcp_P3XJUYGKFpb-27" target="WQc2Nrcp_P3XJUYGKFpb-60">
          <mxGeometry width="50" height="50" relative="1" as="geometry">
            <mxPoint x="220" y="690" as="sourcePoint" />
            <mxPoint x="270" y="640" as="targetPoint" />
          </mxGeometry>
        </mxCell>
        <mxCell id="WQc2Nrcp_P3XJUYGKFpb-144" value="" style="endArrow=classic;html=1;entryX=0.5;entryY=0;entryDx=0;entryDy=0;exitX=0.194;exitY=1.072;exitDx=0;exitDy=0;exitPerimeter=0;" edge="1" parent="WIyWlLk6GJQsqaUBKTNV-1" source="WQc2Nrcp_P3XJUYGKFpb-29" target="WQc2Nrcp_P3XJUYGKFpb-62">
          <mxGeometry width="50" height="50" relative="1" as="geometry">
            <mxPoint x="160" y="890" as="sourcePoint" />
            <mxPoint x="210" y="840" as="targetPoint" />
          </mxGeometry>
        </mxCell>
        <mxCell id="WQc2Nrcp_P3XJUYGKFpb-145" value="" style="endArrow=classic;html=1;entryX=0.5;entryY=0;entryDx=0;entryDy=0;" edge="1" parent="WIyWlLk6GJQsqaUBKTNV-1" target="WQc2Nrcp_P3XJUYGKFpb-66">
          <mxGeometry width="50" height="50" relative="1" as="geometry">
            <mxPoint x="340" y="814" as="sourcePoint" />
            <mxPoint x="420" y="894" as="targetPoint" />
          </mxGeometry>
        </mxCell>
        <mxCell id="WQc2Nrcp_P3XJUYGKFpb-146" value="" style="endArrow=classic;html=1;" edge="1" parent="WIyWlLk6GJQsqaUBKTNV-1">
          <mxGeometry width="50" height="50" relative="1" as="geometry">
            <mxPoint x="1050" y="760" as="sourcePoint" />
            <mxPoint x="1130" y="760" as="targetPoint" />
          </mxGeometry>
        </mxCell>
        <mxCell id="WQc2Nrcp_P3XJUYGKFpb-147" value="" style="endArrow=classic;html=1;entryX=0.613;entryY=-0.016;entryDx=0;entryDy=0;entryPerimeter=0;exitX=0.485;exitY=1.111;exitDx=0;exitDy=0;exitPerimeter=0;" edge="1" parent="WIyWlLk6GJQsqaUBKTNV-1" source="WQc2Nrcp_P3XJUYGKFpb-25" target="WQc2Nrcp_P3XJUYGKFpb-74">
          <mxGeometry width="50" height="50" relative="1" as="geometry">
            <mxPoint x="940" y="814" as="sourcePoint" />
            <mxPoint x="990" y="764" as="targetPoint" />
          </mxGeometry>
        </mxCell>
        <mxCell id="WQc2Nrcp_P3XJUYGKFpb-148" value="" style="endArrow=classic;html=1;exitX=0.756;exitY=1.033;exitDx=0;exitDy=0;exitPerimeter=0;entryX=0.5;entryY=0;entryDx=0;entryDy=0;" edge="1" parent="WIyWlLk6GJQsqaUBKTNV-1" source="WQc2Nrcp_P3XJUYGKFpb-25" target="WQc2Nrcp_P3XJUYGKFpb-78">
          <mxGeometry width="50" height="50" relative="1" as="geometry">
            <mxPoint x="1060" y="850" as="sourcePoint" />
            <mxPoint x="1130" y="910" as="targetPoint" />
          </mxGeometry>
        </mxCell>
        <mxCell id="WQc2Nrcp_P3XJUYGKFpb-149" value="Use" style="endArrow=open;endSize=12;dashed=1;html=1;entryX=0;entryY=0;entryDx=0;entryDy=0;" edge="1" parent="WIyWlLk6GJQsqaUBKTNV-1" target="WQc2Nrcp_P3XJUYGKFpb-14">
          <mxGeometry width="160" relative="1" as="geometry">
            <mxPoint x="440" y="420" as="sourcePoint" />
            <mxPoint x="480" y="430" as="targetPoint" />
            <Array as="points" />
          </mxGeometry>
        </mxCell>
        <mxCell id="WQc2Nrcp_P3XJUYGKFpb-150" value="Use" style="endArrow=open;endSize=12;dashed=1;html=1;exitX=0.006;exitY=0.994;exitDx=0;exitDy=0;exitPerimeter=0;entryX=1;entryY=0;entryDx=0;entryDy=0;" edge="1" parent="WIyWlLk6GJQsqaUBKTNV-1" source="WQc2Nrcp_P3XJUYGKFpb-33" target="WQc2Nrcp_P3XJUYGKFpb-14">
          <mxGeometry width="160" relative="1" as="geometry">
            <mxPoint x="750" y="490" as="sourcePoint" />
            <mxPoint x="910" y="490" as="targetPoint" />
          </mxGeometry>
        </mxCell>
        <mxCell id="WQc2Nrcp_P3XJUYGKFpb-151" value="Use" style="endArrow=open;endSize=12;dashed=1;html=1;entryX=0.212;entryY=1.06;entryDx=0;entryDy=0;entryPerimeter=0;exitX=1;exitY=0;exitDx=0;exitDy=0;" edge="1" parent="WIyWlLk6GJQsqaUBKTNV-1" source="WQc2Nrcp_P3XJUYGKFpb-26" target="WQc2Nrcp_P3XJUYGKFpb-17">
          <mxGeometry width="160" relative="1" as="geometry">
            <mxPoint x="570" y="810" as="sourcePoint" />
            <mxPoint x="730" y="810" as="targetPoint" />
          </mxGeometry>
        </mxCell>
        <mxCell id="WQc2Nrcp_P3XJUYGKFpb-152" value="Use" style="endArrow=open;endSize=12;dashed=1;html=1;exitX=0;exitY=0;exitDx=0;exitDy=0;entryX=0.778;entryY=1.099;entryDx=0;entryDy=0;entryPerimeter=0;" edge="1" parent="WIyWlLk6GJQsqaUBKTNV-1" source="WQc2Nrcp_P3XJUYGKFpb-22" target="WQc2Nrcp_P3XJUYGKFpb-17">
          <mxGeometry width="160" relative="1" as="geometry">
            <mxPoint x="630" y="820" as="sourcePoint" />
            <mxPoint x="680" y="640" as="targetPoint" />
          </mxGeometry>
        </mxCell>
        <mxCell id="WQc2Nrcp_P3XJUYGKFpb-153" value="Use" style="endArrow=open;endSize=12;dashed=1;html=1;" edge="1" parent="WIyWlLk6GJQsqaUBKTNV-1">
          <mxGeometry width="160" relative="1" as="geometry">
            <mxPoint x="690" y="134.49" as="sourcePoint" />
            <mxPoint x="850" y="134.49" as="targetPoint" />
          </mxGeometry>
        </mxCell>
        <mxCell id="WQc2Nrcp_P3XJUYGKFpb-154" value="Use" style="endArrow=open;endSize=12;dashed=1;html=1;entryX=0.011;entryY=1.041;entryDx=0;entryDy=0;entryPerimeter=0;exitX=0.994;exitY=-0.177;exitDx=0;exitDy=0;exitPerimeter=0;" edge="1" parent="WIyWlLk6GJQsqaUBKTNV-1" source="WQc2Nrcp_P3XJUYGKFpb-101" target="WQc2Nrcp_P3XJUYGKFpb-52">
          <mxGeometry width="160" relative="1" as="geometry">
            <mxPoint x="700" y="258.49" as="sourcePoint" />
            <mxPoint x="860" y="258.49" as="targetPoint" />
            <Array as="points">
              <mxPoint x="1010" y="240" />
            </Array>
          </mxGeometry>
        </mxCell>
        <mxCell id="WQc2Nrcp_P3XJUYGKFpb-155" value="Use" style="endArrow=open;endSize=12;dashed=1;html=1;entryX=0.5;entryY=0;entryDx=0;entryDy=0;" edge="1" parent="WIyWlLk6GJQsqaUBKTNV-1" target="WQc2Nrcp_P3XJUYGKFpb-54">
          <mxGeometry width="160" relative="1" as="geometry">
            <mxPoint x="690" y="375.49" as="sourcePoint" />
            <mxPoint x="850" y="375.49" as="targetPoint" />
            <Array as="points">
              <mxPoint x="790" y="280" />
              <mxPoint x="1150" y="280" />
            </Array>
          </mxGeometry>
        </mxCell>
        <mxCell id="WQc2Nrcp_P3XJUYGKFpb-156" value="Use" style="endArrow=open;endSize=12;dashed=1;html=1;entryX=1;entryY=0;entryDx=0;entryDy=0;exitX=0;exitY=0.5;exitDx=0;exitDy=0;" edge="1" parent="WIyWlLk6GJQsqaUBKTNV-1" source="WQc2Nrcp_P3XJUYGKFpb-97" target="WQc2Nrcp_P3XJUYGKFpb-38">
          <mxGeometry width="160" relative="1" as="geometry">
            <mxPoint x="540" y="140" as="sourcePoint" />
            <mxPoint x="700" y="140" as="targetPoint" />
            <Array as="points">
              <mxPoint x="480" y="60" />
              <mxPoint x="220" y="60" />
            </Array>
          </mxGeometry>
        </mxCell>
        <mxCell id="WQc2Nrcp_P3XJUYGKFpb-157" value="Use" style="endArrow=open;endSize=12;dashed=1;html=1;exitX=0;exitY=0.5;exitDx=0;exitDy=0;entryX=1.003;entryY=1.08;entryDx=0;entryDy=0;entryPerimeter=0;" edge="1" parent="WIyWlLk6GJQsqaUBKTNV-1" source="WQc2Nrcp_P3XJUYGKFpb-101" target="WQc2Nrcp_P3XJUYGKFpb-44">
          <mxGeometry width="160" relative="1" as="geometry">
            <mxPoint x="750" y="490" as="sourcePoint" />
            <mxPoint x="910" y="490" as="targetPoint" />
          </mxGeometry>
        </mxCell>
        <mxCell id="WQc2Nrcp_P3XJUYGKFpb-158" value="Use" style="endArrow=open;endSize=12;dashed=1;html=1;exitX=0.001;exitY=1.102;exitDx=0;exitDy=0;exitPerimeter=0;" edge="1" parent="WIyWlLk6GJQsqaUBKTNV-1" source="WQc2Nrcp_P3XJUYGKFpb-104">
          <mxGeometry width="160" relative="1" as="geometry">
            <mxPoint x="750" y="490" as="sourcePoint" />
            <mxPoint x="66" y="360" as="targetPoint" />
            <Array as="points">
              <mxPoint x="500" y="450" />
              <mxPoint x="180" y="450" />
            </Array>
          </mxGeometry>
        </mxCell>
        <mxCell id="WQc2Nrcp_P3XJUYGKFpb-159" value="Use" style="endArrow=open;endSize=12;dashed=1;html=1;entryX=1;entryY=0;entryDx=0;entryDy=0;exitX=0.015;exitY=1.002;exitDx=0;exitDy=0;exitPerimeter=0;" edge="1" parent="WIyWlLk6GJQsqaUBKTNV-1" source="WQc2Nrcp_P3XJUYGKFpb-98" target="WQc2Nrcp_P3XJUYGKFpb-58">
          <mxGeometry width="160" relative="1" as="geometry">
            <mxPoint x="60" y="570" as="sourcePoint" />
            <mxPoint x="220" y="570" as="targetPoint" />
            <Array as="points">
              <mxPoint x="480" y="240" />
              <mxPoint x="480" y="530" />
            </Array>
          </mxGeometry>
        </mxCell>
        <mxCell id="WQc2Nrcp_P3XJUYGKFpb-160" value="Use" style="endArrow=open;endSize=12;dashed=1;html=1;exitX=-0.007;exitY=0.863;exitDx=0;exitDy=0;exitPerimeter=0;entryX=1;entryY=0;entryDx=0;entryDy=0;" edge="1" parent="WIyWlLk6GJQsqaUBKTNV-1" source="WQc2Nrcp_P3XJUYGKFpb-102" target="WQc2Nrcp_P3XJUYGKFpb-66">
          <mxGeometry width="160" relative="1" as="geometry">
            <mxPoint x="430" y="900" as="sourcePoint" />
            <mxPoint x="590" y="900" as="targetPoint" />
            <Array as="points">
              <mxPoint x="490" y="360" />
              <mxPoint x="490" y="840" />
            </Array>
          </mxGeometry>
        </mxCell>
        <mxCell id="WQc2Nrcp_P3XJUYGKFpb-161" value="Use" style="endArrow=open;endSize=12;dashed=1;html=1;exitX=0;exitY=0.5;exitDx=0;exitDy=0;entryX=1;entryY=0;entryDx=0;entryDy=0;" edge="1" parent="WIyWlLk6GJQsqaUBKTNV-1" source="WQc2Nrcp_P3XJUYGKFpb-103" target="WQc2Nrcp_P3XJUYGKFpb-62">
          <mxGeometry width="160" relative="1" as="geometry">
            <mxPoint x="540" y="880" as="sourcePoint" />
            <mxPoint x="700" y="880" as="targetPoint" />
            <Array as="points">
              <mxPoint x="500" y="400" />
              <mxPoint x="500" y="880" />
              <mxPoint x="240" y="880" />
            </Array>
          </mxGeometry>
        </mxCell>
        <mxCell id="WQc2Nrcp_P3XJUYGKFpb-162" value="" style="endArrow=block;dashed=1;endFill=0;endSize=12;html=1;entryX=0;entryY=0;entryDx=0;entryDy=0;exitX=0.999;exitY=1.002;exitDx=0;exitDy=0;exitPerimeter=0;" edge="1" parent="WIyWlLk6GJQsqaUBKTNV-1" source="WQc2Nrcp_P3XJUYGKFpb-98" target="WQc2Nrcp_P3XJUYGKFpb-74">
          <mxGeometry width="160" relative="1" as="geometry">
            <mxPoint x="750" y="490" as="sourcePoint" />
            <mxPoint x="910" y="490" as="targetPoint" />
            <Array as="points">
              <mxPoint x="810" y="200" />
              <mxPoint x="810" y="860" />
            </Array>
          </mxGeometry>
        </mxCell>
        <mxCell id="WQc2Nrcp_P3XJUYGKFpb-163" value="" style="endArrow=block;dashed=1;endFill=0;endSize=12;html=1;exitX=1;exitY=0.5;exitDx=0;exitDy=0;entryX=1;entryY=0;entryDx=0;entryDy=0;" edge="1" parent="WIyWlLk6GJQsqaUBKTNV-1" source="WQc2Nrcp_P3XJUYGKFpb-101" target="WQc2Nrcp_P3XJUYGKFpb-70">
          <mxGeometry width="160" relative="1" as="geometry">
            <mxPoint x="750" y="490" as="sourcePoint" />
            <mxPoint x="910" y="490" as="targetPoint" />
            <Array as="points">
              <mxPoint x="1360" y="259" />
              <mxPoint x="1360" y="640" />
            </Array>
          </mxGeometry>
        </mxCell>
        <mxCell id="WQc2Nrcp_P3XJUYGKFpb-164" value="" style="endArrow=block;dashed=1;endFill=0;endSize=12;html=1;entryX=0;entryY=0;entryDx=0;entryDy=0;exitX=0.999;exitY=0.984;exitDx=0;exitDy=0;exitPerimeter=0;" edge="1" parent="WIyWlLk6GJQsqaUBKTNV-1" source="WQc2Nrcp_P3XJUYGKFpb-104" target="WQc2Nrcp_P3XJUYGKFpb-78">
          <mxGeometry width="160" relative="1" as="geometry">
            <mxPoint x="600" y="870" as="sourcePoint" />
            <mxPoint x="760" y="870" as="targetPoint" />
            <Array as="points">
              <mxPoint x="760" y="420" />
              <mxPoint x="760" y="880" />
              <mxPoint x="1080" y="880" />
            </Array>
          </mxGeometry>
        </mxCell>
        <mxCell id="WQc2Nrcp_P3XJUYGKFpb-165" value="" style="endArrow=classic;html=1;exitX=0;exitY=0.5;exitDx=0;exitDy=0;" edge="1" parent="WIyWlLk6GJQsqaUBKTNV-1" source="WQc2Nrcp_P3XJUYGKFpb-120">
          <mxGeometry width="50" height="50" relative="1" as="geometry">
            <mxPoint x="810" y="520" as="sourcePoint" />
            <mxPoint x="725" y="555" as="targetPoint" />
          </mxGeometry>
        </mxCell>
        <mxCell id="WQc2Nrcp_P3XJUYGKFpb-166" value="" style="endArrow=classic;html=1;entryX=0;entryY=0.5;entryDx=0;entryDy=0;" edge="1" parent="WIyWlLk6GJQsqaUBKTNV-1" target="WQc2Nrcp_P3XJUYGKFpb-133">
          <mxGeometry width="50" height="50" relative="1" as="geometry">
            <mxPoint x="1040" y="563" as="sourcePoint" />
            <mxPoint x="1090" y="510" as="targetPoint" />
          </mxGeometry>
        </mxCell>
      </root>
    </mxGraphModel>
  </diagram>
</mxfile>
